<svg viewBox="604.9005 0 291 286.5" xmlns:xlink="http://www.w3.org/1999/xlink" version="1.1" xmlns="http://www.w3.org/2000/svg" style="max-height: 500px" width="291" height="286.5"><g transform="matrix(1,0,0,1,-0.9090909090909918,-0.3134816399956435)"><svg xmlns:xlink="http://www.w3.org/1999/xlink" xmlns="http://www.w3.org/2000/svg" width="1500" height="537" preserveAspectRatio="xMidYMid meet" data-background-color="#121212" viewBox="0 0 396 142"><g transform="matrix(1,0,0,1,0.2400000000000091,0.08289458636755853)" id="tight-bounds"><svg width="395.52" height="141.83421082726488" viewBox="0 0 395.52 141.83421082726488"><g><svg width="395.52" height="141.83421082726488" viewBox="0 0 395.52 141.83421082726488"><g transform="matrix(1,0,0,1,0,87.65923239758413)"><svg width="395.52" height="54.17497842968076" viewBox="0 0 395.52 54.17497842968076"><g id="textblocktransform"><svg id="textblock" width="395.52" height="54.17497842968076" viewBox="0 0 395.52 54.17497842968076"><g><svg width="395.52" height="54.17497842968076" viewBox="0 0 395.52 54.17497842968076"><g transform="matrix(1,0,0,1,0,0)"><svg data-palette-color="#e1410d" height="54.17497842968076" viewBox="4.49 -36.01 339.52 46.51" width="395.52"><path id="text-0" data-fill-palette-color="primary" class="wordmark-text-0" fill="#e1410d" transform="matrix(1,0,0,1,0,0)" opacity="1" d="M27.29-18.26L27.29-18.26Q28.39-17.92 29.3-17.29 30.2-16.65 30.83-15.66 31.47-14.67 31.81-13.33 32.15-11.99 32.15-10.25L32.15-10.25 32.15-8.5Q32.15 0 23.66 0L23.66 0 4.49 0 4.49-35.01 22.66-35.01Q31.15-35.01 31.15-26.49L31.15-26.49 31.15-25.85Q31.15-22.9 30.21-21.03 29.27-19.17 27.29-18.26ZM23.51-15.26L9.4-15.26 9.4-4.91 23.51-4.91Q25.49-4.91 26.37-5.83 27.25-6.76 27.25-8.74L27.25-8.74 27.25-11.45Q27.25-13.45 26.37-14.36 25.49-15.26 23.51-15.26L23.51-15.26ZM22.51-30.1L9.4-30.1 9.4-20.14 22.85-20.14Q24.66-20.21 25.45-21.13 26.25-22.05 26.25-23.95L26.25-23.95 26.25-26.25Q26.25-28.25 25.37-29.17 24.49-30.1 22.51-30.1L22.51-30.1ZM39.16-36.01L43.94-36.01 43.94 0 39.16 0 39.16-36.01ZM51.95-4.81L51.95-11.35Q51.95-12.35 52.33-13.22 52.7-14.09 53.35-14.75 54-15.41 54.88-15.78 55.76-16.16 56.73-16.16L56.73-16.16 69.14-16.16 69.14-21.19 53.44-21.19 53.44-26 69.14-26Q70.14-26 71.02-25.62 71.89-25.24 72.54-24.6 73.19-23.95 73.57-23.07 73.95-22.19 73.95-21.19L73.95-21.19 73.95 0 69.14 0 69.14-4.39Q69.06-3.49 68.65-2.69 68.23-1.88 67.59-1.28 66.94-0.68 66.11-0.34 65.28 0 64.35 0L64.35 0 56.73 0Q55.76 0 54.88-0.38 54-0.76 53.35-1.4 52.7-2.05 52.33-2.93 51.95-3.81 51.95-4.81L51.95-4.81ZM56.73-11.35L56.73-4.81 69.14-4.81 69.14-11.35 56.73-11.35ZM81.44-21.19L81.44-26 102.95-26 102.95-24.71 89.1-4.81 102.95-4.81 102.95 0 80.95 0 80.95-1.29 94.79-21.19 81.44-21.19ZM110.2-26L115-26 115 0 110.2 0 110.2-26ZM109.95-31.01L109.95-36.01 115.25-36.01 115.25-31.01 109.95-31.01ZM146.25-21.19L146.25 0 141.44 0 141.44-21.19 128.04-21.19 128.04 0 123.25 0 123.25-26 128.04-26 128.04-21.41Q128.09-22.36 128.48-23.21 128.87-24.05 129.52-24.67 130.16-25.29 131.02-25.65 131.87-26 132.85-26L132.85-26 141.44-26Q142.44-26 143.32-25.62 144.2-25.24 144.85-24.6 145.5-23.95 145.87-23.07 146.25-22.19 146.25-21.19L146.25-21.19ZM154.26-5.81L154.26-21.19Q154.26-22.19 154.64-23.07 155.01-23.95 155.66-24.6 156.31-25.24 157.19-25.62 158.07-26 159.04-26L159.04-26 167.66-26Q168.61-26 169.47-25.65 170.32-25.29 170.97-24.67 171.62-24.05 172.02-23.21 172.42-22.36 172.45-21.41L172.45-21.41 172.45-26 177.26-26 177.26 5.69Q177.26 6.69 176.88 7.57 176.5 8.45 175.85 9.09 175.2 9.74 174.33 10.12 173.45 10.5 172.45 10.5L172.45 10.5 157.26 10.5 157.26 5.69 172.45 5.69 172.45-1 159.04-1Q158.07-1 157.19-1.38 156.31-1.76 155.66-2.4 155.01-3.05 154.64-3.93 154.26-4.81 154.26-5.81L154.26-5.81ZM159.04-5.81L172.45-5.81 172.45-21.19 159.04-21.19 159.04-5.81ZM223.54-18.26L223.54-18.26Q224.64-17.92 225.54-17.29 226.44-16.65 227.08-15.66 227.71-14.67 228.06-13.33 228.4-11.99 228.4-10.25L228.4-10.25 228.4-8.5Q228.4 0 219.9 0L219.9 0 200.74 0 200.74-35.01 218.9-35.01Q227.4-35.01 227.4-26.49L227.4-26.49 227.4-25.85Q227.4-22.9 226.46-21.03 225.52-19.17 223.54-18.26ZM219.76-15.26L205.64-15.26 205.64-4.91 219.76-4.91Q221.73-4.91 222.61-5.83 223.49-6.76 223.49-8.74L223.49-8.74 223.49-11.45Q223.49-13.45 222.61-14.36 221.73-15.26 219.76-15.26L219.76-15.26ZM218.75-30.1L205.64-30.1 205.64-20.14 219.1-20.14Q220.9-20.21 221.7-21.13 222.49-22.05 222.49-23.95L222.49-23.95 222.49-26.25Q222.49-28.25 221.61-29.17 220.73-30.1 218.75-30.1L218.75-30.1ZM235.4-4.81L235.4-26 240.19-26 240.19-4.81 253.59-4.81 253.59-26 258.4-26 258.4 0 253.59 0 253.59-4.39Q253.52-3.49 253.1-2.69 252.69-1.88 252.04-1.28 251.39-0.68 250.56-0.34 249.73 0 248.81 0L248.81 0 240.19 0Q239.21 0 238.33-0.38 237.45-0.76 236.81-1.4 236.16-2.05 235.78-2.93 235.4-3.81 235.4-4.81L235.4-4.81ZM266.65-26L271.46-26 271.46 0 266.65 0 266.65-26ZM266.41-31.01L266.41-36.01 271.7-36.01 271.7-31.01 266.41-31.01ZM279.71-36.01L284.49-36.01 284.49 0 279.71 0 279.71-36.01ZM292.5-4.81L292.5-21.19Q292.5-22.19 292.88-23.07 293.26-23.95 293.9-24.6 294.55-25.24 295.43-25.62 296.31-26 297.28-26L297.28-26 310.69-26 310.69-36.01 315.5-36.01 315.5 0 310.69 0 310.69-4.39Q310.61-3.49 310.2-2.69 309.78-1.88 309.14-1.28 308.49-0.68 307.66-0.34 306.83 0 305.9 0L305.9 0 297.28 0Q296.31 0 295.43-0.38 294.55-0.76 293.9-1.4 293.26-2.05 292.88-2.93 292.5-3.81 292.5-4.81L292.5-4.81ZM297.28-21.19L297.28-4.81 310.69-4.81 310.69-21.19 297.28-21.19ZM322.99-4.81L339.2-4.81 339.2-10.84 327.8-10.84Q326.8-10.84 325.92-11.22 325.04-11.6 324.39-12.24 323.75-12.89 323.37-13.77 322.99-14.65 322.99-15.65L322.99-15.65 322.99-21.19Q322.99-22.19 323.37-23.07 323.75-23.95 324.39-24.6 325.04-25.24 325.92-25.62 326.8-26 327.8-26L327.8-26 343.01-26 343.01-21.19 327.8-21.19 327.8-15.65 339.2-15.65Q340.2-15.65 341.07-15.27 341.94-14.89 342.59-14.25 343.25-13.6 343.63-12.72 344.01-11.84 344.01-10.84L344.01-10.84 344.01-4.81Q344.01-3.81 343.63-2.93 343.25-2.05 342.59-1.4 341.94-0.76 341.07-0.38 340.2 0 339.2 0L339.2 0 322.99 0 322.99-4.81Z"/></svg></g></svg></g></svg></g></svg></g><g transform="matrix(1,0,0,1,160.32508990509058,0)"><svg width="74.86982018981882" height="74.86982018981882" viewBox="0 0 74.86982018981882 74.86982018981882"><g><svg/></g><g id="icon-0"><svg width="74.86982018981882" height="74.86982018981882" viewBox="0 0 74.86982018981882 74.86982018981882"><g><path data-fill-palette-color="accent" style="mix-blend-mode: normal" text-anchor="none" font-size="none" font-weight="none" font-family="none" stroke-dashoffset="0" stroke-dasharray="" stroke-miterlimit="10" stroke-linejoin="miter" stroke-linecap="butt" stroke-width="1" stroke="none" fill-rule="nonzero" fill="#e1410d" d="M30 100c-16.569 0-30-13.431-30-30v-40c0-16.569 13.431-30 30-30h40c16.569 0 30 13.431 30 30v40c0 16.569-13.431 30-30 30z" transform="scale(0.7487,0.7487)"/></g><g transform="matrix(1,0,0,1,15.961102883421074,14.973964037963764)"><svg width="42.94761442297668" height="44.921892113891296" viewBox="0 0 42.94761442297668 44.921892113891296"><g><svg id="dxe-0" data-fill-palette-color="quaternary" class="icon-dxe-0" width="42.94761442297668" height="44.921892113891296" y="0" x="0" viewBox="14.334999999999996 12.694999999999993 71.33000000000001 74.609" xml:space="preserve" xmlns="http://www.w3.org/2000/svg"><path data-fill-palette-color="quaternary" fill="#121212" d="M85.665 66.445c0 8.631-3.059 15.561-8.17 20.621-2.229-5.08-5.6-5.871-6.709-15.342-0.125-1.068-0.443-2.09-1.051-2.889-3.715-4.891-1.465 8.984-6.369 3.279-3.135-3.645-9.346-30.67-10.451-21.51-0.281 2.329-9.42 29.051-12.399 20.741-1.45-4.07-2.81-7.57-4.17-8.92-1.56-1.551-2.2 6.939-5.25 11.34-2.181 3.119-5.96 8.459-8.341 13.539-5.26-5.08-8.42-12.09-8.42-20.859 0-7.65 8.746-19.802 12.74-25.68 7.871-11.583 4.48-15.62 6.37-13.74 1.65 1.641 3.29 5.88 5.06 10.82 3.601 10.08 9.16-25.15 15.031-25.15 4.199 0-3.547 6.134 12.66 26.08 3.051 3.756 5.287 0.516 4.449-2.955-0.875-3.625 0.828-6.852 2.375-2.625 0.418 1.14 1.797 3.858 2.186 5.11 3.065 9.89 10.459 18.14 10.459 28.14"/></svg></g></svg></g></svg></g></svg></g><g/></svg></g><defs/></svg><rect visibility="hidden" stroke="none" fill="none" height="141.83421082726488" width="395.52"/></g></svg></g></svg>